<svg width="124" height="30" viewBox="0 0 124 30" fill="none" xmlns="http://www.w3.org/2000/svg">
<g opacity="0.9">
<path d="M13.4 4.25V0H0V29.2H13.4V24.95C10.655 24.95 8.0224 23.8595 6.08144 21.9185C4.14044 19.9775 3.05 17.345 3.05 14.6C3.05 11.855 4.14044 9.22241 6.08144 7.28145C8.0224 5.34045 10.655 4.25 13.4 4.25Z" fill="#0F62FE"/>
<path d="M13.3999 4.25V24.95C16.1449 24.95 18.7775 23.8595 20.7185 21.9185C22.6595 19.9775 23.7499 17.345 23.7499 14.6C23.7499 11.855 22.6595 9.22241 20.7185 7.28145C18.7775 5.34045 16.1449 4.25 13.3999 4.25Z" fill="#0F62FE"/>
<path d="M36.7891 5.53748V22.6H33.2734V5.53748H36.7891ZM47.0078 5.53748L40.2461 13.9633L36.3438 18.1586L35.7109 14.8304L38.3477 11.2211L42.6953 5.53748H47.0078ZM43.0117 22.6L37.9844 14.7133L40.5859 12.5336L47.1719 22.6H43.0117ZM47.4531 16.389V16.1429C47.4531 15.2133 47.5859 14.3578 47.8516 13.5765C48.1172 12.7875 48.5039 12.1039 49.0117 11.5258C49.5195 10.9476 50.1445 10.4984 50.8867 10.1781C51.6289 9.84998 52.4805 9.68591 53.4414 9.68591C54.4023 9.68591 55.2578 9.84998 56.0078 10.1781C56.7578 10.4984 57.3867 10.9476 57.8945 11.5258C58.4102 12.1039 58.8008 12.7875 59.0664 13.5765C59.332 14.3578 59.4648 15.2133 59.4648 16.1429V16.389C59.4648 17.3109 59.332 18.1664 59.0664 18.9554C58.8008 19.7367 58.4102 20.4203 57.8945 21.0062C57.3867 21.5844 56.7617 22.0336 56.0195 22.3539C55.2773 22.6742 54.4258 22.8344 53.4648 22.8344C52.5039 22.8344 51.6484 22.6742 50.8984 22.3539C50.1562 22.0336 49.5273 21.5844 49.0117 21.0062C48.5039 20.4203 48.1172 19.7367 47.8516 18.9554C47.5859 18.1664 47.4531 17.3109 47.4531 16.389ZM50.8281 16.1429V16.389C50.8281 16.9203 50.875 17.4164 50.9688 17.8773C51.0625 18.3383 51.2109 18.7445 51.4141 19.0961C51.625 19.4398 51.8984 19.7094 52.2344 19.9047C52.5703 20.1 52.9805 20.1976 53.4648 20.1976C53.9336 20.1976 54.3359 20.1 54.6719 19.9047C55.0078 19.7094 55.2773 19.4398 55.4805 19.0961C55.6836 18.7445 55.832 18.3383 55.9258 17.8773C56.0273 17.4164 56.0781 16.9203 56.0781 16.389V16.1429C56.0781 15.6273 56.0273 15.1429 55.9258 14.6898C55.832 14.2289 55.6797 13.8226 55.4688 13.4711C55.2656 13.1117 54.9961 12.8304 54.6602 12.6273C54.3242 12.4242 53.918 12.3226 53.4414 12.3226C52.9648 12.3226 52.5586 12.4242 52.2227 12.6273C51.8945 12.8304 51.625 13.1117 51.4141 13.4711C51.2109 13.8226 51.0625 14.2289 50.9688 14.6898C50.875 15.1429 50.8281 15.6273 50.8281 16.1429ZM64.8438 12.6273V22.6H61.4688V9.92029H64.6328L64.8438 12.6273ZM64.3516 15.8148H63.4375C63.4375 14.8773 63.5586 14.0336 63.8008 13.2836C64.043 12.5258 64.3828 11.8812 64.8203 11.35C65.2578 10.8109 65.7773 10.4008 66.3789 10.1195C66.9883 9.83044 67.668 9.68591 68.418 9.68591C69.0117 9.68591 69.5547 9.77185 70.0469 9.94373C70.5391 10.1156 70.9609 10.389 71.3125 10.764C71.6719 11.139 71.9453 11.6351 72.1328 12.2523C72.3281 12.8695 72.4258 13.6234 72.4258 14.514V22.6H69.0273V14.5023C69.0273 13.9398 68.9492 13.5023 68.793 13.1898C68.6367 12.8773 68.4062 12.6586 68.1016 12.5336C67.8047 12.4008 67.4375 12.3344 67 12.3344C66.5469 12.3344 66.1523 12.4242 65.8164 12.6039C65.4883 12.7836 65.2148 13.0336 64.9961 13.3539C64.7852 13.6664 64.625 14.0336 64.5156 14.4554C64.4062 14.8773 64.3516 15.3304 64.3516 15.8148ZM81.2031 9.92029V12.3109H73.8203V9.92029H81.2031ZM75.6484 6.79138H79.0234V18.7797C79.0234 19.1469 79.0703 19.4281 79.1641 19.6234C79.2656 19.8187 79.4141 19.9554 79.6094 20.0336C79.8047 20.1039 80.0508 20.139 80.3477 20.139C80.5586 20.139 80.7461 20.1312 80.9102 20.1156C81.082 20.0922 81.2266 20.0687 81.3438 20.0453L81.3555 22.5297C81.0664 22.6234 80.7539 22.6976 80.418 22.7523C80.082 22.807 79.7109 22.8344 79.3047 22.8344C78.5625 22.8344 77.9141 22.7133 77.3594 22.4711C76.8125 22.2211 76.3906 21.8226 76.0938 21.2758C75.7969 20.7289 75.6484 20.0101 75.6484 19.1195V6.79138ZM86.5 12.6859V22.6H83.125V9.92029H86.3008L86.5 12.6859ZM90.3203 9.83826L90.2617 12.9672C90.0977 12.9437 89.8984 12.9242 89.6641 12.9086C89.4375 12.8851 89.2305 12.8734 89.043 12.8734C88.5664 12.8734 88.1523 12.9359 87.8008 13.0609C87.457 13.1781 87.168 13.3539 86.9336 13.5883C86.707 13.8226 86.5352 14.1078 86.418 14.4437C86.3086 14.7797 86.2461 15.1625 86.2305 15.5922L85.5508 15.3812C85.5508 14.5609 85.6328 13.807 85.7969 13.1195C85.9609 12.4242 86.1992 11.8187 86.5117 11.3031C86.832 10.7875 87.2227 10.389 87.6836 10.1078C88.1445 9.82654 88.6719 9.68591 89.2656 9.68591C89.4531 9.68591 89.6445 9.70154 89.8398 9.73279C90.0352 9.75623 90.1953 9.79138 90.3203 9.83826ZM98.3594 19.7406V14.0922C98.3594 13.6859 98.293 13.3383 98.1602 13.0492C98.0273 12.7523 97.8203 12.5219 97.5391 12.3578C97.2656 12.1937 96.9102 12.1117 96.4727 12.1117C96.0977 12.1117 95.7734 12.1781 95.5 12.3109C95.2266 12.4359 95.0156 12.6195 94.8672 12.8617C94.7188 13.0961 94.6445 13.3734 94.6445 13.6937H91.2695C91.2695 13.1547 91.3945 12.6429 91.6445 12.1586C91.8945 11.6742 92.2578 11.2484 92.7344 10.8812C93.2109 10.5062 93.7773 10.2133 94.4336 10.0023C95.0977 9.79138 95.8398 9.68591 96.6602 9.68591C97.6445 9.68591 98.5195 9.84998 99.2852 10.1781C100.051 10.5062 100.652 10.9984 101.09 11.6547C101.535 12.3109 101.758 13.1312 101.758 14.1156V19.5414C101.758 20.2367 101.801 20.807 101.887 21.2523C101.973 21.6898 102.098 22.0726 102.262 22.4008V22.6H98.8516C98.6875 22.2562 98.5625 21.8265 98.4766 21.3109C98.3984 20.7875 98.3594 20.264 98.3594 19.7406ZM98.8047 14.8773L98.8281 16.7875H96.9414C96.4961 16.7875 96.1094 16.8383 95.7812 16.9398C95.4531 17.0414 95.1836 17.1859 94.9727 17.3734C94.7617 17.5531 94.6055 17.764 94.5039 18.0062C94.4102 18.2484 94.3633 18.514 94.3633 18.8031C94.3633 19.0922 94.4297 19.3539 94.5625 19.5883C94.6953 19.8148 94.8867 19.9945 95.1367 20.1273C95.3867 20.2523 95.6797 20.3148 96.0156 20.3148C96.5234 20.3148 96.9648 20.2133 97.3398 20.0101C97.7148 19.807 98.0039 19.557 98.207 19.2601C98.418 18.9633 98.5273 18.682 98.5352 18.4164L99.4258 19.8461C99.3008 20.1664 99.1289 20.4984 98.9102 20.8422C98.6992 21.1859 98.4297 21.5101 98.1016 21.8148C97.7734 22.1117 97.3789 22.3578 96.918 22.5531C96.457 22.7406 95.9102 22.8344 95.2773 22.8344C94.4727 22.8344 93.7422 22.6742 93.0859 22.3539C92.4375 22.0258 91.9219 21.5765 91.5391 21.0062C91.1641 20.4281 90.9766 19.7719 90.9766 19.0375C90.9766 18.3734 91.1016 17.7836 91.3516 17.2679C91.6016 16.7523 91.9688 16.3187 92.4531 15.9672C92.9453 15.6078 93.5586 15.3383 94.293 15.1586C95.0273 14.9711 95.8789 14.8773 96.8477 14.8773H98.8047ZM111.215 19.0961C111.215 18.8539 111.145 18.6351 111.004 18.4398C110.863 18.2445 110.602 18.0648 110.219 17.9008C109.844 17.7289 109.301 17.5726 108.59 17.432C107.949 17.2914 107.352 17.1156 106.797 16.9047C106.25 16.6859 105.773 16.4242 105.367 16.1195C104.969 15.8148 104.656 15.4554 104.43 15.0414C104.203 14.6195 104.09 14.139 104.09 13.6C104.09 13.0687 104.203 12.5687 104.43 12.1C104.664 11.6312 104.996 11.2172 105.426 10.8578C105.863 10.4906 106.395 10.2054 107.02 10.0023C107.652 9.79138 108.363 9.68591 109.152 9.68591C110.254 9.68591 111.199 9.86169 111.988 10.2133C112.785 10.5648 113.395 11.0492 113.816 11.6664C114.246 12.2758 114.461 12.9711 114.461 13.7523H111.086C111.086 13.4242 111.016 13.1312 110.875 12.8734C110.742 12.6078 110.531 12.4008 110.242 12.2523C109.961 12.0961 109.594 12.0179 109.141 12.0179C108.766 12.0179 108.441 12.0844 108.168 12.2172C107.895 12.3422 107.684 12.514 107.535 12.7328C107.395 12.9437 107.324 13.1781 107.324 13.4359C107.324 13.6312 107.363 13.807 107.441 13.9633C107.527 14.1117 107.664 14.2484 107.852 14.3734C108.039 14.4984 108.281 14.6156 108.578 14.725C108.883 14.8265 109.258 14.9203 109.703 15.0062C110.617 15.1937 111.434 15.4398 112.152 15.7445C112.871 16.0414 113.441 16.4476 113.863 16.9633C114.285 17.4711 114.496 18.139 114.496 18.9672C114.496 19.5297 114.371 20.0453 114.121 20.514C113.871 20.9828 113.512 21.3929 113.043 21.7445C112.574 22.0883 112.012 22.3578 111.355 22.5531C110.707 22.7406 109.977 22.8344 109.164 22.8344C107.984 22.8344 106.984 22.6234 106.164 22.2015C105.352 21.7797 104.734 21.2445 104.312 20.5961C103.898 19.9398 103.691 19.2679 103.691 18.5804H106.891C106.906 19.0414 107.023 19.4125 107.242 19.6937C107.469 19.975 107.754 20.1781 108.098 20.3031C108.449 20.4281 108.828 20.4906 109.234 20.4906C109.672 20.4906 110.035 20.432 110.324 20.3148C110.613 20.1898 110.832 20.0258 110.98 19.8226C111.137 19.6117 111.215 19.3695 111.215 19.0961ZM122.898 9.92029V12.3109H115.516V9.92029H122.898ZM117.344 6.79138H120.719V18.7797C120.719 19.1469 120.766 19.4281 120.859 19.6234C120.961 19.8187 121.109 19.9554 121.305 20.0336C121.5 20.1039 121.746 20.139 122.043 20.139C122.254 20.139 122.441 20.1312 122.605 20.1156C122.777 20.0922 122.922 20.0687 123.039 20.0453L123.051 22.5297C122.762 22.6234 122.449 22.6976 122.113 22.7523C121.777 22.807 121.406 22.8344 121 22.8344C120.258 22.8344 119.609 22.7133 119.055 22.4711C118.508 22.2211 118.086 21.8226 117.789 21.2758C117.492 20.7289 117.344 20.0101 117.344 19.1195V6.79138Z" fill="#0F62FE"/>
</g>
</svg>
