<svg width="172" height="32" viewBox="0 0 172 32" fill="none" xmlns="http://www.w3.org/2000/svg">
<g opacity="0.9">
<path d="M37.408 32H50.3257L18.3258 0H5.40796L37.408 32Z" fill="#0F62FE"/>
<path d="M24.9622 1.63716e-06L55.8095 30.8474V0H47.4617V9.73909L37.7225 0L24.9622 1.63716e-06Z" fill="#0F62FE"/>
<path d="M0 1.07135V31.9999H8.34782V22.2608L18.0869 31.9999H30.9287L0 1.07135Z" fill="#0F62FE"/>
<path d="M72.2705 9.85547L67.6299 24H63.8916L70.2314 6.9375H72.6104L72.2705 9.85547ZM76.126 24L71.4736 9.85547L71.0986 6.9375H73.501L79.876 24H76.126ZM75.915 17.6484V20.4023H66.9033V17.6484H75.915ZM84.6221 14.0859V24H81.2471V11.3203H84.4229L84.6221 14.0859ZM88.4424 11.2383L88.3838 14.3672C88.2197 14.3438 88.0205 14.3242 87.7861 14.3086C87.5596 14.2852 87.3525 14.2734 87.165 14.2734C86.6885 14.2734 86.2744 14.3359 85.9229 14.4609C85.5791 14.5781 85.29 14.7539 85.0557 14.9883C84.8291 15.2227 84.6572 15.5078 84.54 15.8438C84.4307 16.1797 84.3682 16.5625 84.3525 16.9922L83.6729 16.7812C83.6729 15.9609 83.7549 15.207 83.9189 14.5195C84.083 13.8242 84.3213 13.2188 84.6338 12.7031C84.9541 12.1875 85.3447 11.7891 85.8057 11.5078C86.2666 11.2266 86.7939 11.0859 87.3877 11.0859C87.5752 11.0859 87.7666 11.1016 87.9619 11.1328C88.1572 11.1562 88.3174 11.1914 88.4424 11.2383ZM96.833 11.3203V13.7109H89.4502V11.3203H96.833ZM91.2783 8.19141H94.6533V20.1797C94.6533 20.5469 94.7002 20.8281 94.7939 21.0234C94.8955 21.2188 95.0439 21.3555 95.2393 21.4336C95.4346 21.5039 95.6807 21.5391 95.9775 21.5391C96.1885 21.5391 96.376 21.5312 96.54 21.5156C96.7119 21.4922 96.8564 21.4688 96.9736 21.4453L96.9854 23.9297C96.6963 24.0234 96.3838 24.0977 96.0479 24.1523C95.7119 24.207 95.3408 24.2344 94.9346 24.2344C94.1924 24.2344 93.5439 24.1133 92.9893 23.8711C92.4424 23.6211 92.0205 23.2227 91.7236 22.6758C91.4268 22.1289 91.2783 21.4102 91.2783 20.5195V8.19141ZM98.9658 6.9375H105.329C106.634 6.9375 107.755 7.13281 108.692 7.52344C109.638 7.91406 110.364 8.49219 110.872 9.25781C111.38 10.0234 111.634 10.9648 111.634 12.082C111.634 12.9961 111.478 13.7812 111.165 14.4375C110.86 15.0859 110.427 15.6289 109.864 16.0664C109.31 16.4961 108.657 16.8398 107.907 17.0977L106.794 17.6836H101.263L101.239 14.9414H105.353C105.97 14.9414 106.481 14.832 106.888 14.6133C107.294 14.3945 107.599 14.0898 107.802 13.6992C108.013 13.3086 108.118 12.8555 108.118 12.3398C108.118 11.793 108.017 11.3203 107.813 10.9219C107.61 10.5234 107.302 10.2188 106.888 10.0078C106.474 9.79688 105.954 9.69141 105.329 9.69141H102.481V24H98.9658V6.9375ZM108.505 24L104.614 16.3945L108.329 16.3711L112.267 23.8359V24H108.505ZM119.966 24.2344C118.981 24.2344 118.099 24.0781 117.317 23.7656C116.536 23.4453 115.872 23.0039 115.325 22.4414C114.786 21.8789 114.372 21.2266 114.083 20.4844C113.794 19.7344 113.649 18.9375 113.649 18.0938V17.625C113.649 16.6641 113.786 15.7852 114.06 14.9883C114.333 14.1914 114.724 13.5 115.231 12.9141C115.747 12.3281 116.372 11.8789 117.106 11.5664C117.841 11.2461 118.669 11.0859 119.591 11.0859C120.489 11.0859 121.286 11.2344 121.981 11.5312C122.677 11.8281 123.259 12.25 123.728 12.7969C124.204 13.3438 124.563 14 124.806 14.7656C125.048 15.5234 125.169 16.3672 125.169 17.2969V18.7031H115.091V16.4531H121.853V16.1953C121.853 15.7266 121.767 15.3086 121.595 14.9414C121.431 14.5664 121.181 14.2695 120.845 14.0508C120.509 13.832 120.079 13.7227 119.556 13.7227C119.11 13.7227 118.728 13.8203 118.407 14.0156C118.087 14.2109 117.825 14.4844 117.622 14.8359C117.427 15.1875 117.278 15.6016 117.177 16.0781C117.083 16.5469 117.036 17.0625 117.036 17.625V18.0938C117.036 18.6016 117.106 19.0703 117.247 19.5C117.396 19.9297 117.603 20.3008 117.868 20.6133C118.142 20.9258 118.47 21.168 118.853 21.3398C119.243 21.5117 119.685 21.5977 120.177 21.5977C120.786 21.5977 121.353 21.4805 121.876 21.2461C122.407 21.0039 122.864 20.6406 123.247 20.1562L124.888 21.9375C124.622 22.3203 124.259 22.6875 123.798 23.0391C123.345 23.3906 122.798 23.6797 122.157 23.9062C121.517 24.125 120.786 24.2344 119.966 24.2344ZM133.935 21.1406V15.4922C133.935 15.0859 133.868 14.7383 133.735 14.4492C133.603 14.1523 133.396 13.9219 133.114 13.7578C132.841 13.5938 132.485 13.5117 132.048 13.5117C131.673 13.5117 131.349 13.5781 131.075 13.7109C130.802 13.8359 130.591 14.0195 130.442 14.2617C130.294 14.4961 130.22 14.7734 130.22 15.0938H126.845C126.845 14.5547 126.97 14.043 127.22 13.5586C127.47 13.0742 127.833 12.6484 128.31 12.2812C128.786 11.9062 129.353 11.6133 130.009 11.4023C130.673 11.1914 131.415 11.0859 132.235 11.0859C133.22 11.0859 134.095 11.25 134.86 11.5781C135.626 11.9062 136.228 12.3984 136.665 13.0547C137.11 13.7109 137.333 14.5312 137.333 15.5156V20.9414C137.333 21.6367 137.376 22.207 137.462 22.6523C137.548 23.0898 137.673 23.4727 137.837 23.8008V24H134.427C134.263 23.6562 134.138 23.2266 134.052 22.7109C133.974 22.1875 133.935 21.6641 133.935 21.1406ZM134.38 16.2773L134.403 18.1875H132.517C132.071 18.1875 131.685 18.2383 131.356 18.3398C131.028 18.4414 130.759 18.5859 130.548 18.7734C130.337 18.9531 130.181 19.1641 130.079 19.4062C129.985 19.6484 129.938 19.9141 129.938 20.2031C129.938 20.4922 130.005 20.7539 130.138 20.9883C130.271 21.2148 130.462 21.3945 130.712 21.5273C130.962 21.6523 131.255 21.7148 131.591 21.7148C132.099 21.7148 132.54 21.6133 132.915 21.4102C133.29 21.207 133.579 20.957 133.782 20.6602C133.993 20.3633 134.103 20.082 134.11 19.8164L135.001 21.2461C134.876 21.5664 134.704 21.8984 134.485 22.2422C134.274 22.5859 134.005 22.9102 133.677 23.2148C133.349 23.5117 132.954 23.7578 132.493 23.9531C132.032 24.1406 131.485 24.2344 130.853 24.2344C130.048 24.2344 129.317 24.0742 128.661 23.7539C128.013 23.4258 127.497 22.9766 127.114 22.4062C126.739 21.8281 126.552 21.1719 126.552 20.4375C126.552 19.7734 126.677 19.1836 126.927 18.668C127.177 18.1523 127.544 17.7188 128.028 17.3672C128.521 17.0078 129.134 16.7383 129.868 16.5586C130.603 16.3711 131.454 16.2773 132.423 16.2773H134.38ZM143.497 6V24H140.11V6H143.497ZM149.849 11.3203V24H146.462V11.3203H149.849ZM146.251 8.01562C146.251 7.52344 146.423 7.11719 146.767 6.79688C147.11 6.47656 147.571 6.31641 148.149 6.31641C148.72 6.31641 149.177 6.47656 149.521 6.79688C149.872 7.11719 150.048 7.52344 150.048 8.01562C150.048 8.50781 149.872 8.91406 149.521 9.23438C149.177 9.55469 148.72 9.71484 148.149 9.71484C147.571 9.71484 147.11 9.55469 146.767 9.23438C146.423 8.91406 146.251 8.50781 146.251 8.01562ZM158.849 11.3203V13.7109H151.466V11.3203H158.849ZM153.294 8.19141H156.669V20.1797C156.669 20.5469 156.716 20.8281 156.81 21.0234C156.911 21.2188 157.06 21.3555 157.255 21.4336C157.45 21.5039 157.696 21.5391 157.993 21.5391C158.204 21.5391 158.392 21.5312 158.556 21.5156C158.728 21.4922 158.872 21.4688 158.989 21.4453L159.001 23.9297C158.712 24.0234 158.399 24.0977 158.063 24.1523C157.728 24.207 157.356 24.2344 156.95 24.2344C156.208 24.2344 155.56 24.1133 155.005 23.8711C154.458 23.6211 154.036 23.2227 153.739 22.6758C153.442 22.1289 153.294 21.4102 153.294 20.5195V8.19141ZM164.532 22.5703L167.896 11.3203H171.517L166.419 25.9102C166.31 26.2305 166.161 26.5742 165.974 26.9414C165.794 27.3086 165.548 27.6562 165.235 27.9844C164.931 28.3203 164.544 28.5938 164.075 28.8047C163.614 29.0156 163.048 29.1211 162.376 29.1211C162.056 29.1211 161.794 29.1016 161.591 29.0625C161.388 29.0234 161.146 28.9688 160.864 28.8984V26.4258C160.95 26.4258 161.04 26.4258 161.134 26.4258C161.228 26.4336 161.317 26.4375 161.403 26.4375C161.849 26.4375 162.212 26.3867 162.493 26.2852C162.774 26.1836 163.001 26.0273 163.173 25.8164C163.345 25.6133 163.481 25.3477 163.583 25.0195L164.532 22.5703ZM163.126 11.3203L165.88 20.5078L166.36 24.082L164.063 24.3281L159.505 11.3203H163.126Z" fill="#0F62FE"/>
</g>
</svg>
