<svg width="187" height="32" viewBox="0 0 187 32" fill="none" xmlns="http://www.w3.org/2000/svg">
<g opacity="0.9">
<path d="M9.80555 19.9817V28.1025C9.80555 28.4138 9.68188 28.7124 9.46173 28.9324C9.2417 29.1526 8.94315 29.2762 8.6318 29.2762C8.32056 29.2762 8.02201 29.1526 7.80187 28.9324C7.58172 28.7124 7.45806 28.4138 7.45806 28.1025V19.993C7.78491 20.2317 8.17668 20.3649 8.58126 20.3749C9.02223 20.3874 9.45432 20.2487 9.80555 19.9817ZM19.802 17.6343C19.5042 17.6343 19.2184 17.7526 19.0078 17.9632C18.7972 18.1738 18.6788 18.4596 18.6788 18.7575V20.1727C18.6788 20.484 18.8025 20.7826 19.0226 21.0026C19.2427 21.2228 19.5412 21.3464 19.8526 21.3464C20.1639 21.3464 20.4625 21.2228 20.6825 21.0026C20.9027 20.7826 21.0263 20.484 21.0263 20.1727V18.8136C21.0351 18.6526 21.009 18.4915 20.9499 18.3414C20.8909 18.1914 20.8002 18.0557 20.684 17.9438C20.5678 17.8319 20.4289 17.7464 20.2768 17.6929C20.1246 17.6395 19.9627 17.6195 19.802 17.6343ZM4.90839 23.0593C4.50423 23.0472 4.11297 22.9142 3.78519 22.6774V30.8206C3.78519 31.1335 3.90944 31.4335 4.13062 31.6546C4.35179 31.8758 4.65176 32 4.96455 32C5.27734 32 5.57731 31.8758 5.79848 31.6546C6.01966 31.4335 6.14391 31.1335 6.14391 30.8206V22.7336C5.77713 22.9707 5.34437 23.0848 4.90839 23.0593ZM16.1404 15.1969C15.9882 15.1893 15.8361 15.2127 15.6933 15.2658C15.5505 15.3188 15.42 15.4003 15.3096 15.5053C15.1993 15.6105 15.1115 15.7368 15.0516 15.8769C14.9917 16.017 14.9608 16.1678 14.961 16.3201V22.5763C14.961 22.8892 15.0853 23.1892 15.3064 23.4103C15.5277 23.6315 15.8276 23.7557 16.1404 23.7557C16.4532 23.7557 16.7532 23.6315 16.9744 23.4103C17.1955 23.1892 17.3198 22.8892 17.3198 22.5763V16.3987C17.3287 16.2367 17.3025 16.0746 17.2427 15.9236C17.183 15.7727 17.0913 15.6364 16.9738 15.5243C16.8563 15.4122 16.716 15.3269 16.5625 15.2743C16.409 15.2216 16.2458 15.2029 16.0842 15.2194L16.1404 15.1969ZM12.4114 17.6006C11.9883 17.5976 11.5765 17.4643 11.232 17.2187V25.3843C11.232 25.6972 11.3562 25.9972 11.5774 26.2183C11.7987 26.4395 12.0986 26.5637 12.4114 26.5637C12.7242 26.5637 13.0241 26.4395 13.2453 26.2183C13.4665 25.9972 13.5907 25.6972 13.5907 25.3843V17.2299C13.2345 17.4953 12.7994 17.6337 12.3552 17.623L12.4114 17.6006ZM2.35872 23.8568V1.04458C2.35577 0.766506 2.24322 0.500847 2.04554 0.305264C1.84786 0.109681 1.581 -1.12311e-05 1.30291 8.625e-10H1.05581C0.777727 -1.12311e-05 0.510866 0.109681 0.313182 0.305264C0.115499 0.500847 0.00295402 0.766506 0 1.04458V23.8568C0 24.1368 0.111242 24.4054 0.30924 24.6034C0.507238 24.8014 0.775795 24.9126 1.05581 24.9126H1.30291C1.58294 24.9126 1.85148 24.8014 2.04948 24.6034C2.24749 24.4054 2.35872 24.1368 2.35872 23.8568ZM5.03194 22.1945H4.78484C4.50482 22.1945 4.23627 22.0833 4.03827 21.8852C3.84027 21.6872 3.72903 21.4187 3.72903 21.1386V3.76272C3.73199 3.48466 3.84453 3.21898 4.04221 3.02341C4.23989 2.82783 4.50675 2.71814 4.78484 2.71815H5.03194C5.31002 2.71814 5.57688 2.82783 5.77457 3.02341C5.97225 3.21898 6.0848 3.48466 6.08775 3.76272V21.1611C6.08775 21.4411 5.97651 21.7097 5.77851 21.9077C5.58051 22.1057 5.31195 22.2169 5.03194 22.2169V22.1945ZM8.74974 19.5212H8.4914C8.21442 19.5212 7.94867 19.4112 7.75278 19.2153C7.5569 19.0194 7.44682 18.7538 7.44682 18.4767V6.45841C7.44536 6.32029 7.47131 6.18325 7.52309 6.05521C7.57487 5.92718 7.65158 5.8107 7.74874 5.71251C7.8459 5.61432 7.96159 5.53637 8.08907 5.48318C8.21655 5.42998 8.35325 5.40259 8.4914 5.4026H8.74974C9.02784 5.40556 9.29348 5.5181 9.48903 5.71578C9.68469 5.91346 9.79431 6.18032 9.79431 6.45841V18.4767C9.79431 18.7538 9.68424 19.0194 9.48835 19.2153C9.29247 19.4112 9.02683 19.5212 8.74974 19.5212ZM12.4675 16.7694H12.2317C11.9536 16.7694 11.6867 16.6598 11.489 16.4641C11.2913 16.2686 11.1788 16.0029 11.1759 15.7248V9.25518C11.1666 9.11096 11.1871 8.9664 11.2361 8.83038C11.2849 8.69448 11.3613 8.56991 11.4602 8.46467C11.5592 8.35931 11.6787 8.27552 11.8115 8.21824C11.9441 8.16107 12.0871 8.13164 12.2317 8.13198H12.4788C12.7588 8.13198 13.0273 8.24317 13.2254 8.44119C13.4234 8.63921 13.5346 8.90777 13.5346 9.18779V15.7024C13.536 15.842 13.5099 15.9805 13.4574 16.1098C13.4051 16.2392 13.3276 16.357 13.2293 16.4562C13.1311 16.5554 13.0143 16.6342 12.8854 16.688C12.7565 16.7418 12.6184 16.7694 12.4788 16.7694H12.4675ZM16.1966 14.3545H15.9495C15.6694 14.3545 15.4009 14.2433 15.2029 14.0453C15.0048 13.8473 14.8936 13.5787 14.8936 13.2987V11.6251C14.8966 11.347 15.0091 11.0814 15.2068 10.8858C15.4045 10.6902 15.6714 10.5806 15.9495 10.5806H16.1966C16.4747 10.5806 16.7415 10.6902 16.9392 10.8858C17.1369 11.0814 17.2495 11.347 17.2524 11.6251V13.2987C17.2524 13.5768 17.1427 13.8437 16.9471 14.0414C16.7515 14.239 16.4859 14.3516 16.2078 14.3545H16.1966Z" fill="#0F62FE"/>
<path d="M33.2556 20.4697L35.8044 9.70312H37.2283L37.5535 11.4961L34.8376 22.5H33.3083L33.2556 20.4697ZM31.946 9.70312L34.0554 20.4697L33.8796 22.5H32.1746L29.3357 9.70312H31.946ZM39.7947 20.4258L41.8777 9.70312H44.488L41.658 22.5H39.9529L39.7947 20.4258ZM38.0281 9.70312L40.5945 20.5137L40.5242 22.5H38.9949L36.2615 11.4873L36.613 9.70312H38.0281ZM50.7371 11.8916L47.2566 22.5H44.4529L49.2078 9.70312H50.9919L50.7371 11.8916ZM53.6287 22.5L50.1394 11.8916L49.8582 9.70312H51.6599L56.4412 22.5H53.6287ZM53.4705 17.7363V19.8018H46.7117V17.7363H53.4705ZM61.5212 19.8281L64.5359 9.70312H67.4714L63.0154 22.5H61.0818L61.5212 19.8281ZM58.7439 9.70312L61.7498 19.8281L62.2068 22.5H60.2556L55.8259 9.70312H58.7439ZM77.2537 20.4434V22.5H70.4421V20.4434H77.2537ZM71.3035 9.70312V22.5H68.6667V9.70312H71.3035ZM76.366 14.915V16.9189H70.4421V14.915H76.366ZM77.2449 9.70312V11.7686H70.4421V9.70312H77.2449ZM85.4539 19.1514C85.4539 18.9229 85.4187 18.7178 85.3484 18.5361C85.2839 18.3486 85.1609 18.1787 84.9792 18.0264C84.7976 17.8682 84.5427 17.7129 84.2146 17.5605C83.8865 17.4082 83.4617 17.25 82.9402 17.0859C82.3601 16.8984 81.8093 16.6875 81.2878 16.4531C80.7722 16.2188 80.3152 15.9463 79.9167 15.6357C79.5242 15.3193 79.2136 14.9531 78.9851 14.5371C78.7625 14.1211 78.6511 13.6377 78.6511 13.0869C78.6511 12.5537 78.7683 12.0703 79.0027 11.6367C79.2371 11.1973 79.5652 10.8223 79.9871 10.5117C80.4089 10.1953 80.907 9.95215 81.4812 9.78223C82.0613 9.6123 82.697 9.52734 83.3884 9.52734C84.3318 9.52734 85.155 9.69727 85.8582 10.0371C86.5613 10.377 87.1062 10.8428 87.4929 11.4346C87.8855 12.0264 88.0818 12.7031 88.0818 13.4648H85.4626C85.4626 13.0898 85.3835 12.7617 85.2253 12.4805C85.073 12.1934 84.8386 11.9678 84.5222 11.8037C84.2117 11.6396 83.8191 11.5576 83.3445 11.5576C82.8875 11.5576 82.5066 11.6279 82.2019 11.7686C81.8972 11.9033 81.6687 12.0879 81.5164 12.3223C81.364 12.5508 81.2878 12.8086 81.2878 13.0957C81.2878 13.3125 81.3406 13.5088 81.446 13.6846C81.5574 13.8604 81.7214 14.0244 81.9382 14.1768C82.155 14.3291 82.4216 14.4727 82.738 14.6074C83.0544 14.7422 83.4207 14.874 83.8367 15.0029C84.5339 15.2139 85.1462 15.4512 85.6736 15.7148C86.2068 15.9785 86.6521 16.2744 87.0095 16.6025C87.3669 16.9307 87.6365 17.3027 87.8181 17.7188C87.9998 18.1348 88.0906 18.6064 88.0906 19.1338C88.0906 19.6904 87.9822 20.1885 87.7654 20.6279C87.5486 21.0674 87.2351 21.4395 86.825 21.7441C86.4148 22.0488 85.9255 22.2803 85.3572 22.4385C84.7888 22.5967 84.1531 22.6758 83.45 22.6758C82.8171 22.6758 82.1931 22.5938 81.5779 22.4297C80.9626 22.2598 80.4031 22.0049 79.8992 21.665C79.4011 21.3252 79.0027 20.8916 78.7039 20.3643C78.405 19.8369 78.2556 19.2129 78.2556 18.4922H80.9011C80.9011 18.8906 80.9626 19.2275 81.0857 19.5029C81.2087 19.7783 81.3816 20.001 81.6042 20.1709C81.8328 20.3408 82.1023 20.4639 82.4128 20.54C82.7292 20.6162 83.075 20.6543 83.45 20.6543C83.907 20.6543 84.282 20.5898 84.575 20.4609C84.8738 20.332 85.0935 20.1533 85.2341 19.9248C85.3806 19.6963 85.4539 19.4385 85.4539 19.1514ZM98.3562 21.1201V22.5H91.5798V21.1201H98.3562ZM91.9226 9.70312V22.5H90.2263V9.70312H91.9226ZM97.4597 15.2051V16.585H91.5798V15.2051H97.4597ZM98.2683 9.70312V11.0918H91.5798V9.70312H98.2683ZM103.92 22.5H101.248L101.265 21.1201H103.92C104.834 21.1201 105.595 20.9297 106.205 20.5488C106.814 20.1621 107.271 19.623 107.576 18.9316C107.886 18.2344 108.042 17.4199 108.042 16.4883V15.7061C108.042 14.9736 107.954 14.3232 107.778 13.7549C107.602 13.1807 107.344 12.6973 107.005 12.3047C106.665 11.9062 106.249 11.6045 105.757 11.3994C105.27 11.1943 104.711 11.0918 104.078 11.0918H101.195V9.70312H104.078C104.916 9.70312 105.68 9.84375 106.372 10.125C107.063 10.4004 107.658 10.8018 108.156 11.3291C108.66 11.8506 109.047 12.4834 109.316 13.2275C109.586 13.9658 109.72 14.7979 109.72 15.7236V16.4883C109.72 17.4141 109.586 18.249 109.316 18.9932C109.047 19.7314 108.657 20.3613 108.147 20.8828C107.643 21.4043 107.034 21.8057 106.319 22.0869C105.61 22.3623 104.81 22.5 103.92 22.5ZM102.153 9.70312V22.5H100.457V9.70312H102.153ZM119.591 9.70312H121.278V18.3604C121.278 19.3213 121.064 20.1211 120.636 20.7598C120.209 21.3984 119.64 21.8789 118.931 22.2012C118.228 22.5176 117.464 22.6758 116.637 22.6758C115.77 22.6758 114.985 22.5176 114.282 22.2012C113.585 21.8789 113.031 21.3984 112.621 20.7598C112.217 20.1211 112.014 19.3213 112.014 18.3604V9.70312H113.693V18.3604C113.693 19.0283 113.816 19.5791 114.062 20.0127C114.308 20.4463 114.651 20.7686 115.091 20.9795C115.536 21.1904 116.052 21.2959 116.637 21.2959C117.229 21.2959 117.745 21.1904 118.184 20.9795C118.63 20.7686 118.975 20.4463 119.221 20.0127C119.468 19.5791 119.591 19.0283 119.591 18.3604V9.70312ZM131.667 18.4307H133.354C133.266 19.2393 133.035 19.9629 132.66 20.6016C132.285 21.2402 131.755 21.7471 131.069 22.1221C130.384 22.4912 129.528 22.6758 128.503 22.6758C127.753 22.6758 127.07 22.5352 126.455 22.2539C125.845 21.9727 125.321 21.5742 124.882 21.0586C124.442 20.5371 124.102 19.9131 123.862 19.1865C123.628 18.4541 123.51 17.6396 123.51 16.7432V15.4688C123.51 14.5723 123.628 13.7607 123.862 13.0342C124.102 12.3018 124.445 11.6748 124.89 11.1533C125.342 10.6318 125.884 10.2305 126.516 9.94922C127.149 9.66797 127.861 9.52734 128.652 9.52734C129.619 9.52734 130.436 9.70898 131.104 10.0723C131.772 10.4355 132.291 10.9395 132.66 11.584C133.035 12.2227 133.266 12.9639 133.354 13.8076H131.667C131.585 13.21 131.432 12.6973 131.21 12.2695C130.987 11.8359 130.671 11.502 130.26 11.2676C129.85 11.0332 129.314 10.916 128.652 10.916C128.084 10.916 127.583 11.0244 127.149 11.2412C126.721 11.458 126.361 11.7656 126.068 12.1641C125.781 12.5625 125.564 13.04 125.418 13.5967C125.271 14.1533 125.198 14.7715 125.198 15.4512V16.7432C125.198 17.3701 125.262 17.959 125.391 18.5098C125.526 19.0605 125.728 19.5439 125.998 19.96C126.267 20.376 126.61 20.7041 127.026 20.9443C127.442 21.1787 127.934 21.2959 128.503 21.2959C129.223 21.2959 129.798 21.1816 130.225 20.9531C130.653 20.7246 130.975 20.3965 131.192 19.9688C131.415 19.541 131.573 19.0283 131.667 18.4307ZM140.403 10.8369L136.167 22.5H134.435L139.313 9.70312H140.429L140.403 10.8369ZM143.954 22.5L139.709 10.8369L139.682 9.70312H140.799L145.694 22.5H143.954ZM143.734 17.7627V19.1514H136.545V17.7627H143.734ZM150.994 9.70312V22.5H149.324V9.70312H150.994ZM155.107 9.70312V11.0918H145.219V9.70312H155.107ZM158.825 9.70312V22.5H157.129V9.70312H158.825ZM171.762 15.6973V16.5059C171.762 17.4668 171.642 18.3281 171.402 19.0898C171.162 19.8516 170.816 20.499 170.365 21.0322C169.914 21.5654 169.372 21.9727 168.739 22.2539C168.112 22.5352 167.409 22.6758 166.63 22.6758C165.874 22.6758 165.179 22.5352 164.547 22.2539C163.92 21.9727 163.375 21.5654 162.912 21.0322C162.455 20.499 162.1 19.8516 161.848 19.0898C161.596 18.3281 161.47 17.4668 161.47 16.5059V15.6973C161.47 14.7363 161.594 13.8779 161.84 13.1221C162.092 12.3604 162.446 11.7129 162.903 11.1797C163.36 10.6406 163.902 10.2305 164.529 9.94922C165.162 9.66797 165.856 9.52734 166.612 9.52734C167.391 9.52734 168.094 9.66797 168.721 9.94922C169.354 10.2305 169.896 10.6406 170.347 11.1797C170.804 11.7129 171.153 12.3604 171.393 13.1221C171.639 13.8779 171.762 14.7363 171.762 15.6973ZM170.084 16.5059V15.6797C170.084 14.918 170.005 14.2441 169.846 13.6582C169.694 13.0723 169.469 12.5801 169.17 12.1816C168.871 11.7832 168.505 11.4814 168.071 11.2764C167.643 11.0713 167.157 10.9688 166.612 10.9688C166.085 10.9688 165.607 11.0713 165.179 11.2764C164.758 11.4814 164.394 11.7832 164.09 12.1816C163.791 12.5801 163.559 13.0723 163.395 13.6582C163.231 14.2441 163.149 14.918 163.149 15.6797V16.5059C163.149 17.2734 163.231 17.9531 163.395 18.5449C163.559 19.1309 163.794 19.626 164.098 20.0303C164.409 20.4287 164.775 20.7305 165.197 20.9355C165.625 21.1406 166.102 21.2432 166.63 21.2432C167.18 21.2432 167.67 21.1406 168.097 20.9355C168.525 20.7305 168.885 20.4287 169.178 20.0303C169.477 19.626 169.703 19.1309 169.855 18.5449C170.008 17.9531 170.084 17.2734 170.084 16.5059ZM184.146 9.70312V22.5H182.441L175.999 12.6299V22.5H174.302V9.70312H175.999L182.468 19.5996V9.70312H184.146Z" fill="#0F62FE"/>
</g>
</svg>
