<svg width="166" height="32" viewBox="0 0 166 32" fill="none" xmlns="http://www.w3.org/2000/svg">
<g opacity="0.9">
<path d="M22.681 26.4845L1.2684 11.714C-0.901507 10.2173 -0.163881 7.10088 2.54194 6.36802L25.2997 0.191307C25.7818 0.0173566 26.2984 -0.0391112 26.8067 0.0265948C27.3149 0.0923008 27.8002 0.278283 28.2223 0.569108C28.6442 0.859932 28.9908 1.24721 29.2331 1.6988C29.4754 2.15038 29.6066 2.65326 29.6157 3.16568L28.2669 24.1116C28.107 26.5978 24.8509 27.9812 22.681 26.4845Z" fill="#0F62FE"/>
<path d="M15.8896 30.1304L3.27476 5.46055C2.98639 4.89618 2.8595 4.26312 2.90807 3.63121C2.95664 2.9993 3.17878 2.39308 3.54999 1.8794C3.92122 1.36572 4.42709 0.96454 5.01183 0.720098C5.59657 0.475655 6.23746 0.397452 6.86382 0.494119L30.2423 4.10227C30.7805 4.18535 31.2913 4.395 31.7328 4.71398C32.1742 5.03297 32.5336 5.45218 32.7815 5.93714C33.0293 6.4221 33.1585 6.95895 33.1584 7.50358C33.1583 8.04819 33.0289 8.58502 32.781 9.0699L22.0114 30.1316C21.7222 30.6943 21.2835 31.1665 20.7434 31.4961C20.2033 31.8257 19.5829 32 18.9502 31.9999C18.3174 31.9997 17.697 31.8252 17.1571 31.4955C16.6171 31.1656 16.1786 30.6933 15.8896 30.1304Z" fill="#0F62FE"/>
<path d="M23.5791 8.72693L19.0903 8L13.5791 9.57011L15.7789 14.0856L20.9301 17.8153C21.0438 17.8966 21.1688 17.959 21.3007 18L23.2573 13.9852L23.5791 8.72693Z" fill="white"/>
<path d="M49.3616 16.5117H44.9788L44.9553 14.0977H48.635C49.2834 14.0977 49.8147 14.0156 50.2288 13.8516C50.6428 13.6797 50.9514 13.4336 51.1545 13.1133C51.3655 12.7852 51.4709 12.3867 51.4709 11.918C51.4709 11.3867 51.3694 10.957 51.1663 10.6289C50.9709 10.3008 50.6624 10.0625 50.2405 9.91406C49.8264 9.76562 49.2913 9.69141 48.635 9.69141H46.1975V24H42.6819V6.9375H48.635C49.6272 6.9375 50.5139 7.03125 51.2952 7.21875C52.0842 7.40625 52.7522 7.69141 53.2991 8.07422C53.8459 8.45703 54.2639 8.94141 54.553 9.52734C54.842 10.1055 54.9866 10.793 54.9866 11.5898C54.9866 12.293 54.8264 12.9414 54.5061 13.5352C54.1936 14.1289 53.6975 14.6133 53.0178 14.9883C52.3459 15.3633 51.467 15.5703 50.3811 15.6094L49.3616 16.5117ZM49.2092 24H44.0178L45.3889 21.2578H49.2092C49.8264 21.2578 50.3303 21.1602 50.7209 20.9648C51.1116 20.7617 51.4006 20.4883 51.5881 20.1445C51.7756 19.8008 51.8694 19.4062 51.8694 18.9609C51.8694 18.4609 51.7834 18.0273 51.6116 17.6602C51.4475 17.293 51.1819 17.0117 50.8147 16.8164C50.4475 16.6133 49.9631 16.5117 49.3616 16.5117H45.9749L45.9983 14.0977H50.217L51.0256 15.0469C52.0647 15.0312 52.9006 15.2148 53.5334 15.5977C54.1741 15.9727 54.6389 16.4609 54.928 17.0625C55.2249 17.6641 55.3733 18.3086 55.3733 18.9961C55.3733 20.0898 55.135 21.0117 54.6584 21.7617C54.1819 22.5039 53.4827 23.0625 52.5608 23.4375C51.6467 23.8125 50.5295 24 49.2092 24ZM57.26 17.7891V17.543C57.26 16.6133 57.3928 15.7578 57.6584 14.9766C57.9241 14.1875 58.3108 13.5039 58.8186 12.9258C59.3264 12.3477 59.9514 11.8984 60.6936 11.5781C61.4358 11.25 62.2874 11.0859 63.2483 11.0859C64.2092 11.0859 65.0647 11.25 65.8147 11.5781C66.5647 11.8984 67.1936 12.3477 67.7014 12.9258C68.217 13.5039 68.6077 14.1875 68.8733 14.9766C69.1389 15.7578 69.2717 16.6133 69.2717 17.543V17.7891C69.2717 18.7109 69.1389 19.5664 68.8733 20.3555C68.6077 21.1367 68.217 21.8203 67.7014 22.4062C67.1936 22.9844 66.5686 23.4336 65.8264 23.7539C65.0842 24.0742 64.2327 24.2344 63.2717 24.2344C62.3108 24.2344 61.4553 24.0742 60.7053 23.7539C59.9631 23.4336 59.3342 22.9844 58.8186 22.4062C58.3108 21.8203 57.9241 21.1367 57.6584 20.3555C57.3928 19.5664 57.26 18.7109 57.26 17.7891ZM60.635 17.543V17.7891C60.635 18.3203 60.6819 18.8164 60.7756 19.2773C60.8694 19.7383 61.0178 20.1445 61.2209 20.4961C61.4319 20.8398 61.7053 21.1094 62.0413 21.3047C62.3772 21.5 62.7874 21.5977 63.2717 21.5977C63.7405 21.5977 64.1428 21.5 64.4788 21.3047C64.8147 21.1094 65.0842 20.8398 65.2874 20.4961C65.4905 20.1445 65.6389 19.7383 65.7327 19.2773C65.8342 18.8164 65.885 18.3203 65.885 17.7891V17.543C65.885 17.0273 65.8342 16.543 65.7327 16.0898C65.6389 15.6289 65.4866 15.2227 65.2756 14.8711C65.0725 14.5117 64.803 14.2305 64.467 14.0273C64.1311 13.8242 63.7249 13.7227 63.2483 13.7227C62.7717 13.7227 62.3655 13.8242 62.0295 14.0273C61.7014 14.2305 61.4319 14.5117 61.2209 14.8711C61.0178 15.2227 60.8694 15.6289 60.7756 16.0898C60.6819 16.543 60.635 17.0273 60.635 17.543ZM70.8069 17.7891V17.543C70.8069 16.6133 70.9397 15.7578 71.2053 14.9766C71.4709 14.1875 71.8577 13.5039 72.3655 12.9258C72.8733 12.3477 73.4983 11.8984 74.2405 11.5781C74.9827 11.25 75.8342 11.0859 76.7952 11.0859C77.7561 11.0859 78.6116 11.25 79.3616 11.5781C80.1116 11.8984 80.7405 12.3477 81.2483 12.9258C81.7639 13.5039 82.1545 14.1875 82.4202 14.9766C82.6858 15.7578 82.8186 16.6133 82.8186 17.543V17.7891C82.8186 18.7109 82.6858 19.5664 82.4202 20.3555C82.1545 21.1367 81.7639 21.8203 81.2483 22.4062C80.7405 22.9844 80.1155 23.4336 79.3733 23.7539C78.6311 24.0742 77.7795 24.2344 76.8186 24.2344C75.8577 24.2344 75.0022 24.0742 74.2522 23.7539C73.51 23.4336 72.8811 22.9844 72.3655 22.4062C71.8577 21.8203 71.4709 21.1367 71.2053 20.3555C70.9397 19.5664 70.8069 18.7109 70.8069 17.7891ZM74.1819 17.543V17.7891C74.1819 18.3203 74.2288 18.8164 74.3225 19.2773C74.4163 19.7383 74.5647 20.1445 74.7678 20.4961C74.9788 20.8398 75.2522 21.1094 75.5881 21.3047C75.9241 21.5 76.3342 21.5977 76.8186 21.5977C77.2874 21.5977 77.6897 21.5 78.0256 21.3047C78.3616 21.1094 78.6311 20.8398 78.8342 20.4961C79.0374 20.1445 79.1858 19.7383 79.2795 19.2773C79.3811 18.8164 79.4319 18.3203 79.4319 17.7891V17.543C79.4319 17.0273 79.3811 16.543 79.2795 16.0898C79.1858 15.6289 79.0334 15.2227 78.8225 14.8711C78.6194 14.5117 78.3499 14.2305 78.0139 14.0273C77.678 13.8242 77.2717 13.7227 76.7952 13.7227C76.3186 13.7227 75.9124 13.8242 75.5764 14.0273C75.2483 14.2305 74.9788 14.5117 74.7678 14.8711C74.5647 15.2227 74.4163 15.6289 74.3225 16.0898C74.2288 16.543 74.1819 17.0273 74.1819 17.543ZM88.2678 5.98828V24H84.8928V5.98828H88.2678ZM96.26 11.3203L90.7522 17.6016L87.7991 20.5898L86.5686 18.1523L88.9124 15.1758L92.2053 11.3203H96.26ZM92.7561 24L89.0061 18.1406L91.3381 16.1016L96.6467 24H92.7561ZM101.44 6.9375V24H97.9241V6.9375H101.44ZM108.237 14.2266V16.9688H100.479V14.2266H108.237ZM109.057 6.9375V9.69141H100.479V6.9375H109.057ZM114.448 11.3203V24H111.061V11.3203H114.448ZM110.85 8.01562C110.85 7.52344 111.022 7.11719 111.365 6.79688C111.709 6.47656 112.17 6.31641 112.748 6.31641C113.319 6.31641 113.776 6.47656 114.119 6.79688C114.471 7.11719 114.647 7.52344 114.647 8.01562C114.647 8.50781 114.471 8.91406 114.119 9.23438C113.776 9.55469 113.319 9.71484 112.748 9.71484C112.17 9.71484 111.709 9.55469 111.365 9.23438C111.022 8.91406 110.85 8.50781 110.85 8.01562ZM120.541 14.0273V24H117.166V11.3203H120.33L120.541 14.0273ZM120.049 17.2148H119.135C119.135 16.2773 119.256 15.4336 119.498 14.6836C119.74 13.9258 120.08 13.2812 120.518 12.75C120.955 12.2109 121.475 11.8008 122.076 11.5195C122.686 11.2305 123.365 11.0859 124.115 11.0859C124.709 11.0859 125.252 11.1719 125.744 11.3438C126.237 11.5156 126.658 11.7891 127.01 12.1641C127.369 12.5391 127.643 13.0352 127.83 13.6523C128.026 14.2695 128.123 15.0234 128.123 15.9141V24H124.725V15.9023C124.725 15.3398 124.647 14.9023 124.49 14.5898C124.334 14.2773 124.104 14.0586 123.799 13.9336C123.502 13.8008 123.135 13.7344 122.698 13.7344C122.244 13.7344 121.85 13.8242 121.514 14.0039C121.186 14.1836 120.912 14.4336 120.694 14.7539C120.483 15.0664 120.323 15.4336 120.213 15.8555C120.104 16.2773 120.049 16.7305 120.049 17.2148ZM138.178 21.2344V6H141.576V24H138.518L138.178 21.2344ZM130.162 17.8125V17.5664C130.162 16.5977 130.272 15.7188 130.49 14.9297C130.709 14.1328 131.03 13.4492 131.451 12.8789C131.873 12.3086 132.393 11.8672 133.01 11.5547C133.627 11.2422 134.33 11.0859 135.119 11.0859C135.862 11.0859 136.51 11.2422 137.065 11.5547C137.627 11.8672 138.104 12.3125 138.494 12.8906C138.893 13.4609 139.213 14.1367 139.455 14.918C139.698 15.6914 139.873 16.5391 139.983 17.4609V18C139.873 18.8828 139.698 19.7031 139.455 20.4609C139.213 21.2188 138.893 21.8828 138.494 22.4531C138.104 23.0156 137.627 23.4531 137.065 23.7656C136.502 24.0781 135.846 24.2344 135.096 24.2344C134.307 24.2344 133.604 24.0742 132.987 23.7539C132.377 23.4336 131.862 22.9844 131.44 22.4062C131.026 21.8281 130.709 21.1484 130.49 20.3672C130.272 19.5859 130.162 18.7344 130.162 17.8125ZM133.537 17.5664V17.8125C133.537 18.3359 133.576 18.8242 133.655 19.2773C133.74 19.7305 133.877 20.1328 134.065 20.4844C134.26 20.8281 134.51 21.0977 134.815 21.293C135.127 21.4805 135.506 21.5742 135.951 21.5742C136.53 21.5742 137.006 21.4453 137.381 21.1875C137.756 20.9219 138.041 20.5586 138.237 20.0977C138.44 19.6367 138.557 19.1055 138.588 18.5039V16.9688C138.565 16.4766 138.494 16.0352 138.377 15.6445C138.268 15.2461 138.104 14.9062 137.885 14.625C137.674 14.3438 137.408 14.125 137.088 13.9688C136.776 13.8125 136.405 13.7344 135.975 13.7344C135.537 13.7344 135.162 13.8359 134.85 14.0391C134.537 14.2344 134.283 14.5039 134.088 14.8477C133.901 15.1914 133.76 15.5977 133.666 16.0664C133.58 16.5273 133.537 17.0273 133.537 17.5664ZM150.049 24.2344C149.065 24.2344 148.182 24.0781 147.401 23.7656C146.619 23.4453 145.955 23.0039 145.408 22.4414C144.869 21.8789 144.455 21.2266 144.166 20.4844C143.877 19.7344 143.733 18.9375 143.733 18.0938V17.625C143.733 16.6641 143.869 15.7852 144.143 14.9883C144.416 14.1914 144.807 13.5 145.315 12.9141C145.83 12.3281 146.455 11.8789 147.19 11.5664C147.924 11.2461 148.752 11.0859 149.674 11.0859C150.573 11.0859 151.369 11.2344 152.065 11.5312C152.76 11.8281 153.342 12.25 153.811 12.7969C154.287 13.3438 154.647 14 154.889 14.7656C155.131 15.5234 155.252 16.3672 155.252 17.2969V18.7031H145.174V16.4531H151.936V16.1953C151.936 15.7266 151.85 15.3086 151.678 14.9414C151.514 14.5664 151.264 14.2695 150.928 14.0508C150.592 13.832 150.162 13.7227 149.639 13.7227C149.194 13.7227 148.811 13.8203 148.49 14.0156C148.17 14.2109 147.908 14.4844 147.705 14.8359C147.51 15.1875 147.362 15.6016 147.26 16.0781C147.166 16.5469 147.119 17.0625 147.119 17.625V18.0938C147.119 18.6016 147.19 19.0703 147.33 19.5C147.479 19.9297 147.686 20.3008 147.951 20.6133C148.225 20.9258 148.553 21.168 148.936 21.3398C149.326 21.5117 149.768 21.5977 150.26 21.5977C150.869 21.5977 151.436 21.4805 151.959 21.2461C152.49 21.0039 152.948 20.6406 153.33 20.1562L154.971 21.9375C154.705 22.3203 154.342 22.6875 153.881 23.0391C153.428 23.3906 152.881 23.6797 152.24 23.9062C151.6 24.125 150.869 24.2344 150.049 24.2344ZM160.549 14.0859V24H157.174V11.3203H160.35L160.549 14.0859ZM164.369 11.2383L164.311 14.3672C164.147 14.3438 163.948 14.3242 163.713 14.3086C163.487 14.2852 163.28 14.2734 163.092 14.2734C162.615 14.2734 162.201 14.3359 161.85 14.4609C161.506 14.5781 161.217 14.7539 160.983 14.9883C160.756 15.2227 160.584 15.5078 160.467 15.8438C160.358 16.1797 160.295 16.5625 160.28 16.9922L159.6 16.7812C159.6 15.9609 159.682 15.207 159.846 14.5195C160.01 13.8242 160.248 13.2188 160.561 12.7031C160.881 12.1875 161.272 11.7891 161.733 11.5078C162.194 11.2266 162.721 11.0859 163.315 11.0859C163.502 11.0859 163.694 11.1016 163.889 11.1328C164.084 11.1562 164.244 11.1914 164.369 11.2383Z" fill="#0F62FE"/>
</g>
</svg>
